<svg id="Layer_1" data-name="Layer 1" xmlns="http://www.w3.org/2000/svg" viewBox="0 0 128 128"><defs><style>.cls-1{fill:#ff007a;}.cls-2,.cls-3{fill:#fff;}.cls-3{fill-rule:evenodd;}</style></defs><circle class="cls-1" cx="64" cy="64" r="64"/><path class="cls-2" d="M50.74,34.68c-.86-.13-.9-.17-.49-.21a13.66,13.66,0,0,1,3.87.33c3,.7,5.64,2.51,8.49,5.69l.74.86,1.07-.16A22.91,22.91,0,0,1,77.6,42.83a17.83,17.83,0,0,1,3,1.73,4.06,4.06,0,0,1,.29,1.16,7,7,0,0,1-.45,4.49,1.22,1.22,0,0,0-.13,1.32,1.25,1.25,0,0,0,1.11.7c1,0,2-1.57,2.52-3.75l.2-.87.37.42a16.13,16.13,0,0,1,4,7.91l.08.61L88.19,56a6.8,6.8,0,0,0-2-2.1c-1.4-1-2.88-1.24-6.79-1.45a27.52,27.52,0,0,1-7.54-1.15c-3.38-1.11-5.11-2.55-9.11-7.87a37.62,37.62,0,0,0-4-4.69A14,14,0,0,0,50.74,34.68Z"/><path class="cls-2" d="M81.44,39.91a8.69,8.69,0,0,1,.74-3.54,2.54,2.54,0,0,1,.37-.7s0,.28-.17.61a7.84,7.84,0,0,0-.16,3.63c.29,1.85.41,2.1,2.39,4.12.9.95,2,2.14,2.39,2.64l.7.9-.7-.66a25.31,25.31,0,0,0-3.3-2.59c-.29-.17-.33-.17-.53,0S83,44.77,83,46a8.8,8.8,0,0,1-.91,4.2c-.33.62-.37.49-.08-.21a5.87,5.87,0,0,0,.25-2.55c0-3.59-.41-4.45-2.93-5.89-.61-.38-1.69-.91-2.3-1.2a10.86,10.86,0,0,1-1.12-.53,17,17,0,0,1,3.46,1c1.45.57,1.69.61,1.86.57S81.39,40.94,81.44,39.91Z"/><path class="cls-2" d="M52.43,46.05a14.54,14.54,0,0,1-2.59-8.86l.08-.87.41.09a9.33,9.33,0,0,1,2.64,1c1.64,1,2.39,2.34,3.09,5.72.2,1,.49,2.14.61,2.52a15.08,15.08,0,0,0,1.65,3c.46.66.17,1-.86.91C55.89,49.34,53.79,47.9,52.43,46.05Z"/><path class="cls-2" d="M79.33,64c-8.15-3.3-11-6.14-11-11,0-.7,0-1.28,0-1.28a6.62,6.62,0,0,1,.7.54c1.65,1.32,3.51,1.89,8.66,2.64A36.46,36.46,0,0,1,84,56.22c5,1.65,8.07,5,8.82,9.6A16.84,16.84,0,0,1,92.56,71a10.27,10.27,0,0,1-1.32,3s-.12-.21-.12-.54a6.74,6.74,0,0,0-2.39-4.65C87,67.26,84.77,66.15,79.33,64Z"/><path class="cls-2" d="M73.57,65.33a9.74,9.74,0,0,0-.42-1.73L73,63l.37.45a7.37,7.37,0,0,1,1.32,2.39,5.14,5.14,0,0,1,.29,2.31,5.33,5.33,0,0,1-.29,2.22,7.49,7.49,0,0,1-1.73,2.77,10,10,0,0,1-6.18,2.71c-.5,0-1.9.17-3.13.25a24.37,24.37,0,0,0-7,1.16c-.24.08-.49.16-.53.12A9,9,0,0,1,58.28,76a22.57,22.57,0,0,1,6.18-1.65,26.18,26.18,0,0,0,3.67-.74C72.21,72.37,74.23,69.2,73.57,65.33Z"/><path class="cls-2" d="M77.32,72a9.6,9.6,0,0,1-.75-6.67c.09-.21.17-.41.25-.41a1.85,1.85,0,0,1,.58.28c.49.33,1.52.91,4.16,2.35,3.34,1.81,5.23,3.22,6.55,4.82a10.23,10.23,0,0,1,2.18,5,16.14,16.14,0,0,1-.2,4.9,12.17,12.17,0,0,1-6,7.91,5.29,5.29,0,0,1-.86.41,3.15,3.15,0,0,1,.37-.9A8.19,8.19,0,0,0,84,83.25a25.93,25.93,0,0,0-3.3-5.93A38.47,38.47,0,0,1,77.32,72Z"/><path class="cls-2" d="M46.62,84.57a22.4,22.4,0,0,1,10.26-4.95,15.49,15.49,0,0,1,5.32.21,9.18,9.18,0,0,1,5.19,3.34,12.24,12.24,0,0,1,1.89,5.6c.17,1.11.37,2.27.41,2.51a5.51,5.51,0,0,0,1.82,3.26c1.27.95,3.5,1,5.68.16a2.82,2.82,0,0,1,.7-.2,6.43,6.43,0,0,1-1.77,1.19,5.78,5.78,0,0,1-3,.7c-2,0-3.66-1-5-3.09a21.55,21.55,0,0,1-1.36-2.72c-1.44-3.33-2.18-4.32-3.87-5.43a5.07,5.07,0,0,0-4.82-.46A3.11,3.11,0,0,0,57,89.51a4.28,4.28,0,0,0,2.35,1.24,2.52,2.52,0,0,0,2.85-2.51,2,2,0,0,0-1.36-2c-1.32-.58-2.76.08-2.72,1.36a1.13,1.13,0,0,0,.78,1.11c.33.16.33.16.08.12a1.53,1.53,0,0,1-.53-2.68c1.15-1.15,3.58-.66,4.4,1a4.3,4.3,0,0,1,.09,2.8,3.86,3.86,0,0,1-4.7,2.23c-1.36-.37-1.94-.74-3.58-2.43-2.89-3-4-3.55-8.12-4.16l-.78-.13Z"/><path class="cls-3" d="M25,18.28c9.6,11.66,24.39,29.79,25.13,30.78.62.82.37,1.6-.66,2.18a6.26,6.26,0,0,1-2.34.66,3,3,0,0,1-2-.87c-.37-.37-2-2.72-5.61-8.36-2.76-4.33-5.1-7.91-5.14-8s-.17-.08,4.86,8.9c3.17,5.64,4.2,7.66,4.2,7.91,0,.53-.17.82-.83,1.56-1.11,1.24-1.6,2.64-2,5.56-.41,3.26-1.53,5.57-4.7,9.48a16.86,16.86,0,0,0-2.59,3.67,6.88,6.88,0,0,0-.83,3.29,10.22,10.22,0,0,0,.54,4A13.7,13.7,0,0,0,35,83a9.69,9.69,0,0,1,1.53,3c0,.33.08.33,1.56,0,3.55-.82,6.47-2.22,8.08-4a3.75,3.75,0,0,0,1.24-3.14,3.46,3.46,0,0,0-.29-1.73c-.42-.9-1.2-1.64-2.89-2.8C42,72.87,41.06,71.63,40.81,70c-.2-1.4,0-2.34,1.28-4.94a14.66,14.66,0,0,0,1.81-6.51c.13-1.73.33-2.43.83-3A3.07,3.07,0,0,1,47,54.62a7.62,7.62,0,0,0,4.54-1.86,3.91,3.91,0,0,0,1.4-3l0-.95-.54-.58C50.5,46,23.67,16.51,23.55,16.51S24.17,17.29,25,18.28ZM37.6,76.86a1.69,1.69,0,0,0-.54-2.26c-.7-.45-1.77-.25-1.77.37a.43.43,0,0,0,.33.41c.37.21.41.41.13.87s-.29.86.08,1.15A1.17,1.17,0,0,0,37.6,76.86Z"/><path class="cls-3" d="M54.29,55.19a3.67,3.67,0,0,0-2.23,2.43,3.59,3.59,0,0,0,.21,2.23c.45.58.86.74,2,.74,2.26,0,4.2-1,4.4-2.18a3.19,3.19,0,0,0-1.85-3A4.23,4.23,0,0,0,54.29,55.19Zm2.63,2.06a.92.92,0,0,0-.41-1.4c-1.11-.7-2.8-.12-2.8.95,0,.54.86,1.11,1.69,1.11A2.28,2.28,0,0,0,56.92,57.25Z"/></svg>