<svg xmlns="http://www.w3.org/2000/svg" width="298" height="292" viewBox="0 0 298 292" fill="none">
<path d="M74.3755 290.931L110.283 289.429C111.355 289.429 112.427 288.786 113.07 288.357C113.285 288.143 113.928 287.392 113.928 287.392L123.467 274.526L80.8068 270.773L74.3755 290.931Z" fill="#F9F9F9" stroke="#142533" stroke-miterlimit="10" stroke-linecap="round" stroke-linejoin="round"/>
<path d="M82.7361 276.884L46.5067 141.998L44.5773 143.178C43.0767 135.457 41.3617 130.632 41.2545 130.74C36.5382 134.171 33.3226 139.532 32.6795 145.536C32.5723 146.073 32.5723 146.609 32.5723 147.145L68.2658 274.526C68.2658 274.526 68.1586 274.097 68.0514 273.239L72.5533 289.108C73.3036 291.681 75.1258 291.36 76.3049 289.751L81.8786 282.889C81.8786 282.889 83.9152 280.208 82.7361 276.884Z" fill="#F9F9F9" stroke="#142533" stroke-miterlimit="10" stroke-linecap="round" stroke-linejoin="round"/>
<path d="M52.2948 167.088L43.6126 172.986L42.8622 173.951L1.1662 26.7336C0.737446 25.1252 1.1662 23.5169 2.13089 22.3374L2.45245 21.9085L11.1347 12.6874C10.17 13.8668 9.84841 15.3679 10.2772 16.9763L11.2418 20.4074L52.2948 167.088Z" fill="#142533" stroke="#142533" stroke-width="2" stroke-miterlimit="10" stroke-linecap="round" stroke-linejoin="round"/>
<path d="M42.7554 173.95L93.9911 175.666L90.4539 158.189L52.7238 162.478L42.7554 173.95Z" fill="#142533" stroke="#142533" stroke-width="2" stroke-miterlimit="10" stroke-linecap="round" stroke-linejoin="round"/>
<path d="M51.759 162.478L42.0049 175.023" stroke="#F9F9F9" stroke-miterlimit="10" stroke-linecap="round" stroke-linejoin="round"/>
<path d="M51.866 164.944L11.4562 20.4074L10.4915 16.9762C10.0628 15.3679 10.3843 13.8668 11.349 12.6873L11.8849 12.1512C12.6353 11.4006 13.7071 10.9717 14.779 10.9717L45.3275 9.47062C47.4713 9.3634 49.5079 10.7573 50.151 12.9018L59.7979 46.4625L83.4864 128.381L94.8483 168.16L51.866 164.944Z" fill="#142533" stroke="#142533" stroke-width="2" stroke-miterlimit="10" stroke-linecap="round" stroke-linejoin="round"/>
<path d="M2.45268 21.9084L2.02393 22.3373C2.2383 22.2301 2.34549 22.0157 2.45268 21.9084Z" fill="#142533"/>
<path d="M42.3265 39.064C38.1462 42.2807 31.0718 40.6724 26.4627 35.4185C21.8537 30.1645 21.5321 23.3023 25.7124 20.0856C29.8927 16.8689 36.9671 18.4773 41.5762 23.7312C46.1853 28.9851 46.5068 35.8474 42.3265 39.064Z" fill="#142533"/>
<path d="M41.3396 38.7973C46.0092 36.356 47.505 29.9947 44.6807 24.5888C41.8564 19.1829 35.7814 16.7795 31.1118 19.2207C26.4422 21.662 24.9463 28.0233 27.7706 33.4293C30.5949 38.8352 36.67 41.2385 41.3396 38.7973Z" fill="#142533" stroke="#F9F9F9" stroke-miterlimit="10" stroke-linecap="round" stroke-linejoin="round"/>
<path d="M80.4854 268.843L46.5068 141.784C46.5068 141.248 46.614 140.711 46.614 140.175C47.6859 129.882 56.4753 121.304 67.6228 121.411C68.9091 121.411 70.3025 121.518 71.5888 121.84C76.305 122.805 82.2004 126.987 84.5585 132.026L124.218 270.987C124.861 273.132 123.896 275.276 122.181 276.348C121.753 276.563 120.252 276.992 119.93 276.992L83.1651 278.064L80.4854 268.843Z" fill="#F9F9F9" stroke="#142533" stroke-miterlimit="10" stroke-linecap="round" stroke-linejoin="round"/>
<path d="M74.5641 153.707C79.1357 151.087 80.3607 144.631 77.3003 139.287C74.2398 133.943 68.0528 131.735 63.4812 134.355C58.9096 136.975 57.6846 143.431 60.745 148.775C63.8055 154.118 69.9925 156.327 74.5641 153.707Z" fill="#F9F9F9" stroke="#142533" stroke-miterlimit="10" stroke-linecap="round" stroke-linejoin="round"/>
<path d="M91.0967 253.617L92.9189 259.407L101.387 259.3L99.0286 251.473L92.7045 251.58C91.4183 251.58 90.668 252.438 91.0967 253.617Z" fill="#142533"/>
<path d="M93.3477 261.23L93.6692 262.195C93.9908 263.267 95.277 264.232 96.4561 264.232H97.528L96.5633 261.23H93.3477Z" fill="#142533"/>
<path d="M98.6001 261.123L99.5648 264.125H102.78L101.923 261.123H98.6001Z" fill="#142533"/>
<path d="M100.958 251.365L101.923 254.368H105.138L104.817 253.403C104.495 252.33 103.209 251.365 102.03 251.365H100.958Z" fill="#142533"/>
<path d="M102.352 256.19L103.316 259.193H106.639L105.674 256.19H102.352Z" fill="#142533"/>
<path d="M103.852 261.015L104.817 264.018H105.889C107.068 264.018 107.818 263.053 107.496 261.98L107.175 261.015H103.852Z" fill="#142533"/>
<path d="M89.0601 243.86L89.3816 244.932L101.279 244.718L99.3501 238.606H98.3854L99.886 243.753L89.0601 243.86Z" fill="#142533"/>
<path d="M93.8838 237.534C92.0616 237.319 90.8825 236.14 90.4538 234.853C90.1322 233.674 90.6682 232.709 92.3832 232.601L93.8838 237.534ZM89.4891 234.96C90.1322 237.105 92.3832 238.82 95.17 238.713C95.2772 238.713 95.3844 238.713 95.4916 238.713C97.8497 238.606 99.136 236.783 98.4929 234.746V234.639C98.1713 233.566 97.421 232.601 96.4563 231.744L95.706 232.28C96.5635 232.923 97.2066 233.781 97.421 234.639C97.9569 236.247 97.0994 237.641 94.9557 237.748L93.1335 231.744C93.1335 231.744 92.7047 231.744 92.4903 231.744C90.3466 231.636 88.846 232.709 89.4891 234.96Z" fill="#142533"/>
<path d="M95.0627 227.026C95.4914 228.527 94.5267 229.492 92.383 229.599C90.2392 229.599 88.6314 228.527 88.2026 227.133C87.6667 225.417 89.1673 224.667 90.8823 224.56C93.2405 224.56 94.6339 225.739 95.0627 227.026ZM82.8433 223.702L83.1648 224.774L87.3451 224.667C87.5595 224.667 87.7739 224.667 87.9883 224.667C87.1308 225.203 86.8092 226.168 87.1308 227.133V227.24C87.7739 229.277 90.0248 230.779 92.7045 230.671C95.3842 230.671 96.7777 229.277 96.1345 227.133C95.4914 225.096 93.562 224.452 93.562 224.452C93.7764 224.452 93.9908 224.452 94.2052 224.452H95.0627L94.7411 223.38L82.8433 223.702Z" fill="#142533"/>
<path d="M92.2759 218.877C92.7047 220.485 91.74 221.45 89.7034 221.45C87.6669 221.45 86.1662 220.592 85.7375 219.091C85.3087 217.697 85.7375 216.625 88.2028 216.518C90.7753 216.625 91.9544 217.697 92.2759 218.877ZM84.7728 219.306C85.4159 221.45 87.5597 222.63 90.1322 222.63C92.7047 222.63 94.0981 221.128 93.455 219.091C93.0263 217.912 92.2759 217.054 91.2041 216.625C91.4184 216.625 91.6328 216.625 91.8472 216.625H92.5975C94.5269 216.625 95.5988 217.804 96.1347 219.306C96.3491 220.056 96.3491 220.807 96.1347 221.45L97.2066 221.879C97.421 221.128 97.421 220.163 97.0994 219.306C96.5635 217.376 94.9556 215.553 92.1688 215.66L83.8081 215.767L84.1297 216.839H85.0944C85.2015 216.839 85.3087 216.839 85.4159 216.839C85.3087 216.625 84.1297 217.161 84.7728 219.306Z" fill="#142533"/>
<path d="M86.595 213.516C84.7728 213.301 83.5937 212.122 83.165 210.835C82.8434 209.656 83.3793 208.691 85.0943 208.583L86.595 213.516ZM82.0931 210.835C82.7362 212.98 84.9872 214.695 87.774 214.588C87.8812 214.588 87.9884 214.588 88.0956 214.588C90.4537 214.481 91.74 212.658 91.0969 210.621V210.513C90.7753 209.441 90.025 208.476 89.0603 207.618L88.31 208.155C89.1675 208.798 89.8106 209.656 90.025 210.513C90.5609 212.122 89.7034 213.516 87.5597 213.623L85.7375 207.618C85.7375 207.618 85.3087 207.618 85.0943 207.618C82.9506 207.511 81.45 208.691 82.0931 210.835Z" fill="#142533"/>
<path d="M79.9492 203.115C80.378 204.294 81.5571 205.259 82.9505 205.581C82.9505 205.581 82.6289 205.581 82.3074 205.581H80.8067L81.1283 206.653L89.5961 206.546L89.2746 205.474L85.6302 205.581C85.0943 205.581 84.4511 205.581 83.9152 205.367C82.5217 205.045 81.3427 204.187 81.0211 203.115C81.0211 203.008 80.9139 202.901 80.9139 202.686H79.7349C79.8421 202.793 79.842 203.008 79.9492 203.115Z" fill="#142533"/>
<path d="M222.807 149.755L258.315 115.496L259.863 113.727C261.55 119.141 261.145 126.128 257.527 133.226C256.123 136.063 252.794 139.074 250.414 141.623L240.759 150.965L222.807 149.755Z" fill="#F9F9F9" stroke="#142533" stroke-miterlimit="10" stroke-linecap="round" stroke-linejoin="round"/>
<path d="M205.481 141.766L214.208 149.191L250.441 151.814L239.786 144.454L205.481 141.766Z" fill="#142533" stroke="#F9F9F9" stroke-miterlimit="10" stroke-linecap="round" stroke-linejoin="round"/>
<path d="M279.713 4.26013L239.782 144.347L205.481 141.765L245.628 4.88996C245.721 4.45765 246.142 4.22867 246.571 4.21401L279.713 4.26013Z" fill="#142533" stroke="#F9F9F9" stroke-miterlimit="10" stroke-linecap="round" stroke-linejoin="round"/>
<path d="M279.712 4.26018L290.364 11.513L250.441 151.814L239.786 144.454L279.712 4.26018Z" fill="#142533" stroke="#F9F9F9" stroke-miterlimit="10" stroke-linecap="round" stroke-linejoin="round"/>
<path d="M266.92 78.6176L265.424 78.7761C264.888 78.7944 264.474 79.2377 264.278 79.7809L260.127 93.2263C259.931 93.7695 260.167 94.4051 260.606 94.7119L261.157 95.1222C261.378 95.3292 261.807 95.3145 262.017 95.2001L263.181 94.7311L262.498 93.5743L261.94 92.9497L266.92 78.6176Z" fill="#142533" stroke="#F9F9F9" stroke-miterlimit="10" stroke-linecap="round" stroke-linejoin="round"/>
<path d="M261.833 92.9534L265.985 79.5079C266.174 78.7504 267.127 78.396 267.788 78.9098C268.334 79.2129 268.464 79.8522 268.268 80.3954L264.02 94.166C263.828 94.8163 263.085 95.0562 262.642 94.6423L262.42 94.4353C261.874 94.1321 261.637 93.4965 261.833 92.9534Z" fill="#142533" stroke="#F9F9F9" stroke-miterlimit="10" stroke-linecap="round" stroke-linejoin="round"/>
<path d="M281.765 23.5013L280.269 23.6598C279.733 23.6781 279.32 24.1214 279.124 24.6645L274.972 38.11C274.776 38.6531 275.012 39.2888 275.452 39.5956L276.002 40.0059C276.224 40.2129 276.652 40.1982 276.863 40.0837L278.026 39.6148L277.343 38.458L276.786 37.8334L281.765 23.5013Z" fill="#142533" stroke="#F9F9F9" stroke-miterlimit="10" stroke-linecap="round" stroke-linejoin="round"/>
<path d="M276.572 37.8407L280.723 24.3952C280.912 23.6378 281.865 23.2833 282.526 23.7971C283.073 24.1003 283.202 24.7396 283.006 25.2827L278.758 39.0533C278.566 39.7036 277.823 39.9436 277.38 39.5296L277.158 39.3226C276.616 39.1266 276.379 38.491 276.572 37.8407Z" fill="#142533" stroke="#F9F9F9" stroke-miterlimit="10" stroke-linecap="round" stroke-linejoin="round"/>
<path d="M264.119 24.9634L248.449 24.6412L231.272 83.6996L246.561 85.4295L264.119 24.9634Z" fill="#142533" stroke="#F9F9F9" stroke-miterlimit="10" stroke-linecap="round" stroke-linejoin="round"/>
<path d="M129.329 191.791L218.966 103.325C218.966 103.325 227.712 95.6229 236.599 98.3228C245.593 101.019 253.292 112.879 243.628 128.23C242.002 130.86 238.895 134.078 236.515 136.627L145.832 225.88L129.329 191.791Z" fill="#F9F9F9" stroke="#142533" stroke-miterlimit="10" stroke-linecap="round" stroke-linejoin="round"/>
<path d="M223.236 149.741L145.873 223.947C145.145 224.616 145.404 225.895 146.382 226.29L157.899 230.617C158.442 230.813 158.974 230.687 159.391 230.351L240.77 151.287L223.236 149.741Z" fill="#F9F9F9" stroke="#142533" stroke-miterlimit="10" stroke-linecap="round" stroke-linejoin="round"/>
<path d="M236.858 124.983C241.083 120.105 240.809 112.944 236.246 108.989C231.682 105.033 224.558 105.781 220.332 110.659C216.107 115.537 216.381 122.698 220.944 126.653C225.508 130.609 232.632 129.861 236.858 124.983Z" fill="#F9F9F9" stroke="#142533" stroke-miterlimit="10" stroke-linecap="round" stroke-linejoin="round"/>
<path d="M235.075 123.438C238.564 119.41 238.491 113.63 234.912 110.528C231.333 107.426 225.603 108.176 222.114 112.204C218.626 116.231 218.699 122.011 222.278 125.114C225.857 128.216 231.587 127.466 235.075 123.438Z" fill="#F9F9F9" stroke="#142533" stroke-miterlimit="10" stroke-linecap="round" stroke-linejoin="round"/>
<path d="M151.899 218.27L158.859 230.476" stroke="#142533" stroke-miterlimit="10" stroke-linecap="round" stroke-linejoin="round"/>
<path d="M151.228 186.107L147.389 189.886L150.376 195.684L155.456 190.575L153.27 186.251C152.816 185.516 151.952 185.331 151.228 186.107Z" fill="#142533"/>
<path d="M146.251 191.105L145.63 191.77C144.906 192.546 144.625 193.736 145.083 194.578L145.43 195.317L147.399 193.319L146.251 191.105Z" fill="#142533"/>
<path d="M148.09 194.69L146.117 196.581L147.265 198.795L149.238 196.904L148.09 194.69Z" fill="#142533"/>
<path d="M156.254 191.943L154.284 193.942L155.433 196.155L156.053 195.49C156.777 194.715 157.059 193.525 156.601 192.682L156.254 191.943Z" fill="#142533"/>
<path d="M153.035 195.057L151.066 197.056L152.214 199.269L154.184 197.271L153.035 195.057Z" fill="#142533"/>
<path d="M149.928 198.275L147.959 200.273L148.306 201.012C148.764 201.855 149.625 201.933 150.456 201.153L151.077 200.488L149.928 198.275Z" fill="#142533"/>
<path d="M157.897 180.407L157.173 181.183L161.311 189.302L165.354 185.194L165.01 184.563L161.689 187.787L157.897 180.407Z" fill="#142533"/>
<path d="M164.247 181.048C163.774 179.777 164.262 178.366 165.09 177.479C165.814 176.703 166.778 176.67 167.461 177.827L164.247 181.048ZM164.747 176.847C163.398 178.181 162.832 180.453 163.759 182.46L163.873 182.67C164.785 184.248 166.503 184.297 167.959 182.96L168.062 182.849C168.79 182.18 169.293 181.197 169.577 180.115L168.924 179.815C168.739 180.68 168.336 181.445 167.715 182.11C166.677 183.111 165.395 183.262 164.594 181.787L168.536 177.897C168.536 177.897 168.418 177.58 168.307 177.476C167.502 175.894 166.199 175.403 164.747 176.847Z" fill="#142533"/>
<path d="M172.585 177.115C171.654 178.113 170.464 177.831 169.77 176.353C168.969 174.879 169.342 173.257 170.17 172.37C171.312 171.258 172.405 171.864 172.985 173.132C173.9 174.817 173.416 176.336 172.585 177.115ZM171.069 167.297L170.341 167.965L171.833 170.811C171.944 170.915 171.951 171.129 172.062 171.232C171.404 170.826 170.555 171.069 169.934 171.734C169.934 171.734 169.827 171.738 169.83 171.845C168.482 173.179 168.127 175.337 169.05 177.236C169.969 179.028 171.483 179.406 172.832 178.072C174.181 176.739 174.018 175.135 174.018 175.135C174.026 175.349 174.137 175.453 174.247 175.556L174.591 176.188L175.211 175.523L171.069 167.297Z" fill="#142533"/>
<path d="M177.869 171.677C176.83 172.678 175.752 172.501 175.058 171.023C174.367 169.651 174.534 168.251 175.465 167.254C176.4 166.363 177.356 166.116 178.272 167.801C179.084 169.597 178.7 170.898 177.869 171.677ZM175.014 166.625C173.666 167.959 173.414 170.006 174.333 171.798C175.253 173.591 176.763 173.861 178.112 172.527C178.943 171.748 179.235 170.88 179.202 169.915C179.313 170.019 179.321 170.233 179.431 170.336L179.664 170.865C180.351 172.129 179.859 173.433 178.821 174.434C178.3 174.881 177.775 175.221 177.247 175.454L177.276 176.311C177.912 176.075 178.651 175.727 179.164 175.066C180.409 173.843 181.2 171.885 180.281 170.093L177.298 164.401L176.677 165.066L177.02 165.698L177.135 165.909C177.135 165.909 176.363 165.292 175.014 166.625Z" fill="#142533"/>
<path d="M179.906 165.385C179.433 164.114 179.921 162.703 180.749 161.816C181.473 161.04 182.437 161.007 183.12 162.164L179.906 165.385ZM180.512 161.18C179.164 162.514 178.598 164.786 179.521 166.686L179.635 166.896C180.547 168.474 182.265 168.523 183.721 167.186L183.824 167.075C184.552 166.406 185.055 165.424 185.34 164.341L184.686 164.041C184.501 164.906 184.098 165.671 183.477 166.336C182.439 167.337 181.157 167.488 180.356 166.013L184.298 162.124C184.298 162.124 184.18 161.806 184.07 161.702C183.268 160.228 181.857 159.74 180.512 161.18Z" fill="#142533"/>
<path d="M185.49 156.182C184.658 156.962 184.488 158.255 184.632 159.323C184.632 159.323 184.517 159.112 184.399 158.794L183.827 157.741L183.099 158.41L186.086 164.208L186.814 163.54L185.551 161.115C185.322 160.694 185.2 160.269 185.079 159.844C184.828 158.78 185.109 157.59 185.833 156.814C185.936 156.703 186.044 156.7 186.147 156.589L185.8 155.85C185.7 156.068 185.593 156.071 185.49 156.182Z" fill="#142533"/>
</svg>