<svg xmlns="http://www.w3.org/2000/svg" viewBox="0 0 653 714"><path fill="currentColor" d="M315 1c.444 0 .889 0 1.517.322.617.107 1.05-.107 1.483-.322 6.688 0 13.375 0 20.225.333.988.794 1.763 1.431 2.65 1.69 11.002 3.213 22.175 5.92 33.006 9.632 26.748 9.167 53.385 18.664 79.954 28.337 4.766 1.736 8.732.881 12.9-.981 18.213-8.14 37.096-14.032 57.17-14.143 28.763-.159 53.839 9.4 73.55 30.92 21.624 23.608 29.624 51.364 24.156 82.934-2.287 13.206-7.557 25.384-12.977 37.529-4.969 11.133-4.39 21.995 4.152 31.091 4.448 4.736 9.965 8.755 15.625 12.007 12.824 7.369 20.07 18.085 21.818 32.653.712 5.936 1.308 11.885 2.105 17.809.106.79 1.089 1.462 1.666 2.189 0 11.354 0 22.708-.365 34.214-.705.838-1.293 1.505-1.348 2.213-3.375 43.936-19.792 83.124-44.513 118.933-10.524 15.244-22.321 29.736-34.68 43.549-12.8 14.304-26.838 27.52-40.605 40.932-9.968 9.71-19.175 19.488-21.381 34.236-.936 6.256-4.099 12.247-6.669 18.176-6.265 14.453-17.176 25.59-27.83 36.629-20.147 20.875-41.447 40.622-64.396 58.404-24.92 19.308-50.25 38.108-78.595 52.33-.75.375-1.088 1.57-1.618 2.384-3.361 0-6.723 0-10.182-.266-1.861-1.332-3.584-2.472-5.394-3.453-29.193-15.816-56.088-35.062-81.673-56.052-23.76-19.494-46.18-40.517-66.92-63.28-13.14-14.422-22.39-30.782-26.573-49.936-1.735-7.942-4.927-15.019-11.429-20.52-5.702-4.826-10.784-10.384-16.148-15.61-21.094-20.55-41.303-41.904-58.748-65.705-13.493-18.409-25.45-37.75-34.487-58.779C11.4 360.351 5.13 338.543 2.663 315.701c-.067-.62-1.087-1.136-1.663-1.701 0-13.354 0-26.708.332-40.61.348-.887.364-1.228.38-1.57L1 272c0-1.714 0-3.429.365-5.27.869-2.307 1.41-4.48 1.87-6.67 1.49-7.118 2.094-14.564 4.625-21.287 3.768-10.01 12.743-15.482 21.609-20.511 17.476-9.915 23.035-25.153 15.378-42.427-3.025-6.825-5.89-13.737-8.464-20.743-9.047-24.62-8.156-49 2.95-72.729C51.36 56.671 70.834 38.73 98.05 30.454c26.247-7.98 52.399-5.77 77.465 5.182 12.091 5.283 23.65 8.713 35.99 1.424 1.26-.745 2.84-.935 4.248-1.446 32.183-11.67 64.1-24.131 97.375-32.548.75-.19 1.254-1.355 1.873-2.066M170.335 71.092c-10.65-4.845-21.601-8.737-33.365-9.643-22.684-1.747-42.528 4.033-57.467 22.285-16.363 19.993-18.747 46.804-6.554 69.616 14.672 27.45 13.478 53.724-5.944 78.762-6.08 7.838-14.015 13.14-22.135 18.3-3.117 1.981-5.431 3.965-5.87 7.945-.887 8.055-2.801 16.045-3.118 24.108-1.3 33.053 6.174 64.33 20.387 94.052 14.79 30.928 35.874 57.36 59.495 81.854 14.428 14.963 29.44 29.361 44.032 44.169 7.998 8.116 14.187 17.799 15.129 29.136 1.012 12.183 5.6 22.647 13.475 30.933 18.276 19.228 36.958 38.17 56.657 55.916 15.382 13.858 32.34 26.013 48.991 38.397 9.047 6.729 18.943 12.309 28.392 18.505 2.93 1.922 5.345 2.226 8.485.01 19.666-13.876 40.022-26.838 59.104-41.467 26.654-20.433 50.75-43.827 73.361-68.667 7.077-7.775 13.453-16.566 14.653-27.242 1.978-17.585 10.522-30.972 22.963-42.922 16.404-15.759 32.545-31.836 48.04-48.482 14.02-15.06 26.335-31.521 37.051-49.226 17.926-29.617 30.463-60.955 31.93-95.886.648-15.395 1.598-30.999-3.838-45.93-.657-1.806-2.192-3.678-3.833-4.68-10.434-6.363-20.22-13.343-27.11-23.78-14.74-22.332-16.156-45.3-4.44-69.432 3.89-8.012 7.724-16.497 9.177-25.17 5.51-32.886-16.277-63.694-49.087-70.046-19.297-3.737-37.942-.364-54.975 9.051-14.761 8.16-29.086 9.08-44.353 2.222-7.568-3.399-15.441-6.143-23.255-8.965-21.42-7.736-42.837-15.485-64.344-22.972-12.034-4.19-24.53-7.304-37.09-3.265-24.699 7.94-49.216 16.456-73.721 24.981-12.566 4.372-24.767 9.879-37.487 13.69-6.326 1.896-13.378 4.29-20.24.525-4.075-2.235-8.277-4.236-13.096-6.682z"/><path fill="currentColor" d="M123.91 84.87c15.997-6.561 31.93-9.22 48.476-3.775 13.376 4.401 23.238 13.243 31.13 24.584.944 1.356 2.07 2.616 2.818 4.072 1.474 2.868 3.29 2.94 6.095 1.712 22.554-9.877 46.108-14.596 70.804-14.317 30.322.342 60.652.31 90.975.008 24.792-.247 47.958 6.127 70.06 15.718 4.891-6.025 9.404-12.138 14.483-17.736 13.625-15.02 31.165-18.9 50.399-16.2 13.846 1.945 26.733 6.474 36.81 17.09 16.994 17.906 21.894 38.9 16.526 62.597-3.476 15.346-12.97 26.79-24.92 36.258-3.434 2.72-3.566 4.668-1.75 8.15 9.248 17.74 15.088 36.612 17.102 56.493 3.3 32.575-2.42 63.429-17.65 92.664-8.431 16.185-18.76 30.83-30.894 44.312-3.438 3.82-6.957 7.6-10.744 11.066-8.856 8.104-12.709 18.747-16.197 29.795-6.904 21.868-13.562 43.899-25.969 63.504-9.892 15.63-24.043 25.876-40.712 31.432-3.68 12.312-6.304 24.568-10.972 35.99-9.56 23.39-26.938 37.373-52.725 39.57-17.439 1.485-34.899 2.047-52.072-2.14-21.339-5.204-34.831-19.374-42.224-39.367-3.609-9.76-5.471-20.16-8.332-30.212-.424-1.488-1.734-3.34-3.082-3.858-24.557-9.435-40.525-27.257-49.736-51.356-6.228-16.29-12.257-32.701-17.296-49.384-3.614-11.967-10.66-20.898-19.36-29.359-22.57-21.946-39.036-47.918-48.057-78.15-8.278-27.74-9.565-56.008-2.044-84.112 3.891-14.54 9.478-28.625 14.447-43.355-10.474-6.6-19.788-16.054-25.02-28.864-5.141-12.588-6.718-25.706-3.846-39.127 4.211-19.677 14.722-34.631 33.477-43.703m144.694 329.932c-6.331-2.5-12.85-4.617-18.949-7.592-8.687-4.237-17.86-8.704-19.967-19.363-1.53-7.745-2.443-15.855-1.96-23.7.84-13.682 2.97-27.285 4.588-41.169-.798-.09-1.601-.159-2.398-.276-10.359-1.52-20.573-3.021-28.83-10.677-16.729-15.51-24.162-35.054-25.254-57.256-.565-11.5 5.872-17.53 17.373-17.543 19.83-.023 39.682.586 59.482-.184 17.445-.679 28.148 14.354 25.37 30.504-3.29 19.142-7.557 38.114-11.124 57.211-2.562 13.71-4.795 27.485-6.93 41.27-1.191 7.686.167 9.743 7.654 11.166 6.489 1.234 13.112 2.374 19.687 2.439 27.159.267 54.33.486 81.478-.137 7.402-.17 14.784-3.17 22.052-5.295 1.23-.359 2.787-3.019 2.575-4.36-2.402-15.225-4.96-30.43-7.794-45.58-3.54-18.927-7.421-37.79-11.073-56.698-2.606-13.49 6.27-30.1 23.113-30.256 21.16-.197 42.328-.28 63.486.005 10.937.147 17.265 8.446 16.394 19.374-.954 11.96-3.917 23.397-9.305 33.942-8.098 15.845-18.708 28.92-38.503 30.618-9.036.776-8.87 1.326-7.973 10.457 1.396 14.2 3.212 28.396 3.734 42.634.474 12.96-4.503 23.909-16.886 29.799-9.408 4.474-19.147 8.268-28.806 12.197-11.567 4.705-22.252 10.566-29.091 21.565-7.967 12.811-10.958 26.386-5.085 40.854 5.981 14.732 27.617 26.253 45.881 23.303 18.731-3.025 30.734-14.949 37.26-31.81 8.876-22.928 16.44-46.362 24.612-69.563.483-1.372 1.13-2.83 2.112-3.855 3.673-3.835 7.49-7.534 11.302-11.233 18.89-18.324 34.781-38.505 44.242-63.62 11.469-30.444 11.177-60.481-.249-90.543-8.639-22.73-22.236-42.163-40.203-58.675-27.228-25.022-59.025-39.404-96.037-40.3-32.806-.793-65.651-.282-98.474.095-20.45.235-39.74 5.89-57.828 15.227-27.34 14.112-49.011 34.334-64.697 60.963-11.009 18.688-17.689 38.847-19.153 60.308-2.038 29.867 6.67 57.177 22.687 82.276 9.375 14.691 21.347 27.113 34.03 38.9 4.861 4.518 8.465 9.68 10.349 16.146 2.367 8.126 4.81 16.257 7.79 24.172 5.678 15.08 11.014 30.36 17.847 44.922 10.726 22.855 34.805 33.236 57.779 23.215 17.726-7.732 26.058-20.837 24.539-39.998-.754-9.501-4.936-17.584-10.563-24.913-7.51-9.782-18.514-14.339-30.284-18.966m15.656 138.44c3.7 12.883 13.288 19.047 25.646 20.204 11.027 1.033 22.26.585 33.348-.093 4.75-.29 9.963-1.902 13.923-4.502 11.752-7.716 13.688-20.717 17.105-33.645-19.079-2.673-35.526-9.253-47.581-24.46-12.775 14.984-29.317 21.245-47.888 24.446 1.828 6.274 3.446 11.83 5.447 18.05m237.858-431.878c-15.31-14.02-40.967-9.242-47.394 8.288l42.155 39.39c16.527-13.186 16.723-37.004 5.24-47.678m-395.76 32.662l9.873 16.42c5.703-5.99 10.101-11.142 15.054-15.69 7.803-7.165 15.972-13.93 24-20.85 3.197-2.757 4.352-5.36.947-9.126-7.786-8.608-17.062-12.926-28.76-11.34-18.196 2.466-28.05 20.81-21.114 40.586M435.252 271.76c-6.623.17-13.263.111-19.862.599-3.945.291-6.035 2.714-4.771 6.93 1.271 4.244 2.668 8.45 4.12 13.02 4.564-1.753 8.868-3.03 12.824-5.005 7.907-3.946 10.221-8.424 7.69-15.544M233.28 290.172l5.474 1.921c1.183-3.983 2.688-7.684 3.324-11.529.878-5.308-.92-8.155-5.64-8.495-6.372-.459-12.802-.114-19.244-.114-1.108 8.323.321 11.248 7.58 14.732 2.53 1.215 5.181 2.176 8.506 3.485z"/></svg>